<?xml version="1.0" standalone="no"?>
<!DOCTYPE svg PUBLIC "-//W3C//DTD SVG 20010904//EN"
 "http://www.w3.org/TR/2001/REC-SVG-20010904/DTD/svg10.dtd">
<svg version="1.0" xmlns="http://www.w3.org/2000/svg"
 width="2000.000000pt" height="2000.000000pt" viewBox="0 0 2000.000000 2000.000000"
 preserveAspectRatio="xMidYMid meet">

<g transform="translate(0.000000,2000.000000) scale(0.100000,-0.100000)"
fill="#000000" stroke="none">
<path d="M8473 14259 c-418 -38 -788 -268 -947 -586 -51 -103 -67 -166 -73
-293 -7 -146 12 -228 95 -407 86 -184 97 -222 97 -328 0 -82 -3 -97 -33 -158
-21 -42 -59 -95 -101 -138 -36 -38 -64 -69 -61 -69 3 0 41 9 86 20 227 54 361
141 433 283 8 15 18 27 22 27 4 0 47 -13 96 -29 48 -16 130 -36 182 -45 121
-20 340 -21 457 -1 530 91 923 468 925 887 1 155 -36 281 -118 405 -48 73
-170 196 -185 187 -6 -4 -8 -3 -5 4 8 12 -110 92 -196 132 -196 91 -444 131
-674 109z m97 -354 l0 -25 -269 0 -269 0 -4 25 -5 25 273 0 274 0 0 -25z
m-220 -340 l0 -25 -100 0 -100 0 0 25 0 25 100 0 100 0 0 -25z m690 0 l0 -25
-300 0 -300 0 0 25 0 25 300 0 300 0 0 -25z m-122 -392 l3 -23 -250 0 c-237 0
-251 1 -251 18 0 10 3 22 7 26 4 3 115 5 247 4 l241 -3 3 -22z m260 0 c3 -23
1 -23 -97 -23 l-101 0 0 25 0 26 98 -3 c92 -3 97 -4 100 -25z m-828 -308 l0
-25 -100 0 -100 0 0 25 0 25 100 0 100 0 0 -25z m272 0 c-4 -25 -6 -25 -103
-25 -99 0 -99 0 -99 25 l0 25 104 0 103 0 -5 -25z m418 0 l0 -24 -164 -3 -164
-3 -5 28 -4 27 169 0 168 0 0 -25z"/>
<path d="M13530 13313 c-26 -27 -49 -54 -51 -61 -4 -11 -16 -8 -53 12 -94 50
-186 23 -186 -54 0 -33 -6 -36 -34 -15 -11 8 -37 15 -58 15 -80 0 -124 -49
-116 -130 2 -25 0 -39 -7 -36 -83 36 -143 30 -192 -19 -29 -29 -33 -40 -33
-83 0 -44 4 -54 31 -76 35 -30 67 -33 109 -11 29 15 30 15 30 -10 0 -41 29
-85 65 -101 26 -10 32 -18 28 -34 -3 -11 -12 -20 -19 -20 -16 0 -18 -12 -5
-25 12 -13 -9 -115 -27 -134 -9 -9 -12 -25 -7 -45 18 -87 17 -92 -14 -154
l-31 -61 32 -9 c30 -7 32 -11 49 -94 43 -213 188 -350 387 -367 l76 -6 20 -55
c14 -40 20 -82 20 -156 l1 -101 35 33 c129 120 240 206 298 231 l64 28 -6 45
c-3 25 -9 116 -13 202 l-6 157 41 63 c96 149 147 279 165 423 8 57 20 112 27
121 8 9 14 40 14 72 1 49 5 60 27 79 37 32 52 75 47 133 -9 87 -72 146 -227
211 -100 42 -159 48 -206 21 l-35 -21 -25 25 c-33 32 -85 54 -131 54 -31 0
-45 -8 -84 -47z"/>
<path d="M6147 13059 c-123 -18 -278 -123 -334 -226 -12 -23 -22 -31 -33 -27
-93 42 -222 -16 -276 -125 -47 -92 -43 -208 22 -609 31 -195 98 -313 206 -362
l24 -11 -12 -112 c-6 -62 -15 -131 -19 -153 l-7 -42 -82 -10 c-46 -6 -94 -16
-108 -23 -29 -13 -42 -46 -33 -82 6 -23 5 -23 -182 -46 -244 -30 -272 -41
-377 -144 -109 -108 -209 -245 -338 -462 -72 -122 -208 -379 -208 -393 0 -5
25 -26 55 -46 30 -20 55 -40 55 -45 0 -7 -23 -51 -58 -111 -9 -15 -10 -20 -2
-15 6 4 -5 -16 -25 -44 -21 -28 -38 -62 -39 -75 0 -14 -5 -24 -9 -23 -12 3
-114 -223 -148 -328 -57 -172 -66 -260 -34 -325 30 -60 125 -129 178 -130 9 0
17 -4 17 -10 0 -7 -427 -10 -1260 -10 l-1260 0 0 -100 0 -100 170 0 170 0 167
-110 168 -110 152 0 153 0 0 -2305 0 -2305 60 0 c60 0 60 0 60 30 0 16 13 436
30 932 16 497 48 1461 69 2143 22 682 43 1300 47 1373 l6 132 614 0 614 0 0
-2210 0 -2210 59 0 59 0 6 83 c3 45 13 287 21 537 8 250 31 898 50 1440 19
542 44 1253 55 1580 11 327 23 637 26 688 l6 92 260 0 261 0 -7 -87 c-3 -48
-13 -112 -20 -142 -36 -140 -49 -261 -43 -404 3 -84 11 -161 20 -188 27 -83
76 -167 127 -218 l50 -50 1013 -3 1012 -3 49 -24 c93 -46 156 -130 172 -229
l7 -42 -417 0 -416 0 0 -77 c0 -43 5 -195 10 -338 6 -143 28 -791 50 -1440 22
-649 42 -1235 46 -1303 l6 -122 40 0 39 0 -7 1615 c-4 888 -3 1615 1 1615 20
0 109 -66 147 -109 52 -59 104 -167 123 -256 17 -79 19 -219 6 -291 -18 -95
-71 -532 -90 -749 -20 -219 -40 -550 -44 -740 l-2 -100 -36 -3 -36 -3 -7 -61
c-3 -34 -6 -76 -6 -94 l0 -34 80 0 c44 0 80 -4 80 -8 0 -4 -9 -49 -20 -100
-11 -50 -19 -95 -18 -99 0 -5 -2 -16 -5 -26 -4 -9 -9 -24 -12 -32 -2 -9 -16
-15 -34 -15 -16 0 -33 -4 -36 -10 -9 -15 -65 -341 -65 -381 0 -20 6 -41 13
-46 7 -5 177 -9 399 -9 l387 1 3 -35 c3 -34 5 -35 47 -38 43 -3 44 -3 38 25
-3 15 -36 287 -73 602 l-68 575 27 125 c14 70 48 230 76 356 74 341 163 793
221 1115 27 157 54 298 58 313 l7 28 60 -48 c74 -60 112 -121 125 -198 11 -68
14 -1326 3 -1678 l-6 -227 -55 0 -55 0 7 -61 c3 -34 6 -77 6 -95 l0 -34 76 0
76 0 -7 -77 c-18 -197 -18 -197 -45 -203 -24 -6 -26 -13 -59 -199 -24 -137
-31 -201 -25 -219 l9 -26 537 -1 c494 -2 540 0 566 15 46 28 77 112 54 147 -4
7 -88 32 -187 56 -99 25 -218 59 -265 78 l-85 33 58 7 c67 8 87 21 70 47 -7
12 -24 17 -57 16 -26 0 -45 2 -43 5 29 55 31 63 16 72 -8 5 -18 9 -22 9 -14 0
-67 -57 -67 -72 1 -7 7 -1 16 14 16 30 49 52 64 43 17 -10 11 -23 -27 -67 -26
-29 -32 -39 -18 -34 67 28 135 31 135 7 0 -12 -55 -31 -91 -31 -39 0 -79 20
-79 39 0 13 -2 14 -9 2 -8 -12 -19 -8 -63 22 -29 20 -61 37 -70 37 -9 0 -19 3
-21 8 -5 7 6 143 18 230 l6 42 89 0 88 0 6 27 c2 16 7 51 11 78 3 28 8 62 11
77 5 26 3 28 -25 28 -37 0 -38 7 -10 80 33 88 116 368 158 538 113 451 170
859 192 1375 26 594 -16 793 -191 906 -133 86 -467 222 -775 316 -317 97 -828
212 -1182 266 l-153 23 0 83 0 83 2403 3 c2232 3 2410 4 2517 21 157 24 471
24 635 0 72 -10 217 -20 360 -23 l240 -6 -107 -13 c-60 -8 -108 -17 -108 -20
0 -4 50 -22 111 -41 87 -28 120 -43 155 -74 115 -101 95 -255 -41 -318 -57
-26 -121 -23 -227 10 -256 81 -414 105 -698 105 -286 0 -466 -27 -720 -108
-41 -13 -87 -26 -101 -30 -38 -8 -180 -118 -244 -188 -31 -35 -70 -91 -88
-127 l-32 -65 -12 -295 c-20 -478 -60 -875 -138 -1371 -57 -362 -162 -900
-179 -917 -3 -3 -19 0 -36 7 -17 7 -33 10 -37 7 -7 -8 -53 -231 -47 -236 2 -2
35 -18 74 -36 39 -18 73 -35 77 -38 3 -4 -18 -97 -48 -207 l-54 -200 -40 0
c-22 0 -47 -4 -55 -10 -11 -7 -19 0 -35 28 -26 46 -69 72 -87 54 -10 -10 -10
-18 2 -39 8 -15 22 -28 30 -31 9 -3 5 6 -9 22 -18 19 -22 29 -14 37 16 16 49
-5 68 -42 16 -29 15 -30 -7 -28 -50 4 -73 -4 -28 -10 l45 -6 -35 -23 c-19 -12
-46 -22 -59 -22 -20 0 -23 4 -19 25 4 20 3 23 -8 14 -10 -8 -11 -16 -4 -30 9
-15 6 -19 -12 -24 -92 -20 -132 -26 -217 -31 -137 -8 -138 -8 -152 -53 -14
-47 2 -104 35 -126 20 -14 132 -42 641 -165 l210 -51 21 24 c19 22 23 47 34
217 10 151 10 194 1 200 -10 5 -10 17 -1 51 19 73 82 294 85 297 1 1 32 -11
68 -28 37 -16 70 -30 75 -30 5 0 26 63 47 140 36 132 37 141 21 153 -17 12
-14 23 44 158 261 608 452 1196 533 1646 l6 31 -217 4 c-204 3 -220 5 -265 27
-104 51 -174 173 -165 286 13 155 191 353 396 439 119 50 107 49 872 55 l725
6 65 32 c83 41 143 101 182 181 l30 65 5 1566 c5 1689 3 1619 57 1736 13 28
39 70 59 95 20 24 35 46 33 47 -4 4 -172 -42 -261 -72 -83 -28 -246 -95 -255
-104 -3 -3 -32 -19 -64 -36 -33 -16 -82 -52 -109 -79 -105 -105 -237 -342
-351 -631 l-56 -140 23 -20 c13 -11 40 -34 61 -51 l38 -30 -62 -130 c-146
-302 -312 -591 -395 -681 l-43 -48 -188 1 c-188 0 -272 6 -622 45 l-182 21
-85 48 -84 49 -107 -29 c-58 -16 -107 -30 -109 -32 -38 -50 -115 -182 -109
-187 5 -5 42 -13 82 -20 41 -6 122 -27 180 -47 70 -23 140 -38 202 -44 66 -6
131 -21 215 -49 l120 -40 -337 0 c-185 -1 -338 3 -340 7 -1 4 -57 49 -123 100
-66 50 -155 119 -197 152 -43 34 -78 55 -78 48 0 -7 11 -78 25 -158 14 -80 25
-146 25 -147 0 -2 -573 -3 -1272 -3 l-1273 0 75 37 c82 40 158 109 191 176 30
60 84 221 105 311 l18 76 1982 0 1983 0 28 24 28 24 0 1276 0 1275 -23 23 -23
23 -2053 3 -2054 2 -31 -26 -31 -26 0 -424 0 -424 139 0 139 0 -27 -29 c-53
-57 -91 -155 -114 -299 l-22 -133 -34 38 -34 38 -14 -34 c-8 -19 -12 -44 -9
-55 3 -12 14 -57 25 -101 12 -44 21 -94 21 -111 0 -59 -83 -174 -126 -174 -8
0 -14 -3 -14 -7 0 -8 51 -76 64 -85 11 -7 -18 -157 -66 -338 -16 -63 -31 -119
-32 -125 -1 -5 -4 -15 -8 -20 -4 -6 -18 -42 -32 -80 -40 -107 -90 -215 -99
-212 -5 1 -46 74 -91 162 -45 88 -102 198 -126 244 l-44 84 34 27 33 27 -60
124 c-113 234 -253 439 -385 565 -89 84 -138 119 -238 168 -41 20 -79 41 -85
45 -12 10 -188 73 -266 96 -46 13 -59 21 -69 44 -22 53 -95 101 -154 101 -35
0 -46 26 -46 108 l0 70 70 10 c164 24 280 120 329 273 10 32 14 35 41 31 34
-5 37 3 19 73 -13 51 1 137 27 163 11 11 14 26 11 49 -3 19 -3 56 0 84 5 39
10 49 24 49 25 0 24 17 -1 30 -26 14 -26 53 1 141 17 55 20 88 17 161 -5 114
-29 181 -95 263 -108 133 -270 198 -436 174z m2183 -1189 l0 -70 -70 0 -70 0
0 70 0 70 70 0 70 0 0 -70z m660 20 c0 -20 -7 -20 -270 -20 -263 0 -270 0
-270 20 0 20 7 20 270 20 263 0 270 0 270 -20z m-660 -360 l0 -70 -70 0 -70 0
0 70 0 70 70 0 70 0 0 -70z m438 13 c3 -23 1 -23 -97 -23 -91 0 -101 2 -101
18 0 30 10 33 105 30 85 -3 90 -4 93 -25z m682 2 l0 -25 -295 0 -295 0 0 25 0
25 295 0 295 0 0 -25z m1578 -211 c12 -8 22 -22 22 -31 0 -20 -328 -731 -348
-755 -27 -32 -92 -13 -92 27 0 7 52 125 116 261 64 137 141 303 171 369 66
146 83 163 131 129z m-2698 -154 l0 -70 -70 0 -70 0 0 70 0 70 70 0 70 0 0
-70z m2224 14 c9 -8 16 -26 16 -40 0 -28 -14 -37 -212 -145 -76 -41 -138 -77
-138 -81 0 -3 71 -45 158 -93 178 -99 192 -109 192 -141 0 -30 -40 -57 -67
-47 -10 5 -117 62 -236 128 -168 93 -219 125 -224 143 -3 14 0 29 8 37 24 23
453 255 470 255 10 0 25 -7 33 -16z m804 -105 c119 -66 223 -126 230 -132 7
-5 12 -21 10 -35 -3 -20 -38 -43 -218 -144 -118 -66 -225 -124 -238 -129 -44
-17 -85 28 -63 68 9 18 43 38 254 156 l99 55 -176 97 c-111 61 -178 104 -181
116 -9 26 20 69 46 69 11 0 118 -54 237 -121z m-2020 64 l3 -23 -245 0 -246 0
0 25 0 25 243 -2 242 -3 3 -22z m252 2 c0 -25 0 -25 -95 -25 -95 0 -95 0 -95
25 0 25 0 25 95 25 95 0 95 0 95 -25z m-1260 -315 l0 -70 -70 0 -70 0 0 70 0
70 70 0 70 0 0 -70z m440 5 l0 -26 -97 3 c-93 3 -98 4 -101 26 -3 22 -1 22 97
22 l101 0 0 -25z m270 0 c0 -25 0 -25 -95 -25 -95 0 -95 0 -95 25 0 25 0 25
95 25 95 0 95 0 95 -25z m410 0 l0 -25 -160 0 -160 0 0 25 0 25 160 0 160 0 0
-25z m-1120 -355 l0 -70 -70 0 -70 0 0 70 0 70 70 0 70 0 0 -70z m710 -5 c0
-25 0 -25 -95 -25 -95 0 -95 0 -95 25 0 25 0 25 95 25 95 0 95 0 95 -25z m178
-2 c3 -22 0 -23 -57 -23 -59 0 -61 1 -61 25 0 25 2 26 58 23 50 -3 57 -6 60
-25z m392 2 l0 -25 -160 0 c-148 0 -160 1 -160 18 0 10 3 22 7 25 3 4 75 7
160 7 l153 0 0 -25z m-1280 -340 l0 -65 -70 0 -70 0 0 65 0 65 70 0 70 0 0
-65z m990 -40 c0 -25 0 -25 -95 -25 -95 0 -95 0 -95 25 0 25 0 25 95 25 95 0
95 0 95 -25z m278 -2 c3 -23 1 -23 -97 -23 l-101 0 0 25 0 26 98 -3 c92 -3 97
-4 100 -25z m200 0 c3 -22 0 -23 -57 -23 -52 0 -61 3 -61 18 0 29 10 33 65 30
43 -3 50 -6 53 -25z m-4639 -115 c17 -142 31 -351 31 -470 0 -108 0 -108 -24
-108 -14 0 -62 -12 -107 -26 -45 -14 -94 -24 -108 -21 -43 9 -101 31 -101 39
0 5 -5 8 -11 8 -5 0 -31 9 -56 21 -25 11 -61 23 -79 26 -19 3 -34 8 -34 12 0
15 44 118 81 192 22 44 37 85 33 91 -4 7 -3 8 5 4 7 -5 22 16 43 61 17 37 33
70 34 72 2 2 15 -4 29 -13 80 -52 69 -52 107 1 18 26 56 83 83 126 27 42 52
77 56 77 3 0 12 -42 18 -92z m7901 -154 c10 -121 21 -279 25 -352 l6 -134 -28
6 c-15 2 -77 10 -137 17 -100 11 -116 16 -188 57 l-79 45 -55 -12 c-31 -7 -57
-11 -59 -9 -2 2 13 31 33 63 52 83 163 278 201 353 17 34 34 62 37 62 2 0 18
-10 34 -22 l30 -22 35 34 c20 19 54 58 77 87 23 29 44 51 46 49 2 -2 11 -102
22 -222z m-6065 75 c-4 -5 4 -27 17 -47 13 -20 29 -48 36 -62 6 -14 16 -32 21
-40 5 -8 34 -55 64 -105 85 -142 177 -275 189 -275 6 0 8 -3 5 -7 -17 -17 223
-269 265 -278 85 -19 -5 -25 -377 -25 l-405 0 0 81 c0 86 26 549 36 637 3 28
10 52 16 52 6 0 31 15 57 34 39 28 61 40 79 45 2 1 0 -4 -3 -10z m5480 -713
c33 -7 92 -24 131 -39 77 -28 207 -50 241 -41 22 6 120 -21 137 -37 6 -5 -146
-9 -357 -9 l-368 0 58 69 c35 42 66 70 78 70 11 0 47 -6 80 -13z m-7433 -106
c10 0 18 -4 18 -10 0 -6 -59 -10 -157 -9 -167 0 -168 2 -43 41 l75 23 44 -22
c25 -13 53 -23 63 -23z m138 -5 c0 -9 -9 -15 -22 -15 -22 1 -23 1 -4 15 25 19
26 19 26 0z m2445 -4578 c20 -136 35 -252 33 -257 -5 -17 -158 64 -158 84 0 3
13 6 29 6 27 0 90 39 64 40 -6 0 -13 -5 -15 -11 -5 -16 -94 -24 -102 -10 -10
15 60 44 90 38 14 -2 21 0 17 6 -3 5 -23 7 -44 4 l-38 -5 14 28 c18 34 19 50
4 50 -5 0 -7 -5 -4 -11 8 -12 -40 -89 -55 -89 -16 0 -11 33 10 68 11 17 16 32
11 32 -5 0 -16 -16 -25 -35 l-17 -35 -48 49 -48 49 17 79 c10 43 23 102 30
131 l12 52 84 0 c73 0 84 2 85 18 2 44 20 -52 54 -281z"/>
<path d="M16058 8978 c-1 -51 -2 -146 -4 -210 l-2 -118 464 0 464 0 0 -43 c0
-24 7 -241 15 -483 8 -241 35 -1060 60 -1819 64 -1968 64 -1986 71 -2132 l6
-133 59 0 59 0 0 2305 0 2305 148 0 147 0 165 110 165 110 143 0 142 0 0 100
0 100 -1050 0 -1050 0 -2 -92z"/>
<path d="M5040 7256 c0 -2 -34 -287 -75 -632 -42 -346 -91 -762 -111 -924 -58
-487 -91 -769 -129 -1080 -19 -162 -42 -353 -50 -425 -8 -71 -18 -149 -21
-172 l-6 -43 40 0 c37 0 40 2 46 33 3 17 37 241 75 497 39 256 91 600 116 765
25 165 83 552 130 860 46 308 102 679 125 824 22 145 40 272 40 282 0 17 -9
19 -90 19 -49 0 -90 -2 -90 -4z"/>
<path d="M5700 7245 c0 -9 -7 -78 -15 -153 -8 -75 -37 -355 -65 -622 -28 -267
-61 -591 -75 -720 -14 -129 -58 -561 -100 -960 -41 -399 -76 -737 -78 -752 -3
-23 1 -27 36 -32 22 -4 41 -5 42 -4 1 2 14 91 28 198 25 188 206 1523 322
2375 31 226 64 470 74 542 10 73 15 135 13 138 -3 3 -45 5 -94 5 -73 0 -88 -3
-88 -15z"/>
<path d="M15728 6854 c-4 -3 -48 -6 -100 -7 l-93 -2 2 -70 c2 -38 8 -221 14
-405 6 -184 25 -740 43 -1235 l31 -900 60 0 60 0 3 1313 c1 721 -2 1312 -6
1312 -5 0 -11 -3 -14 -6z"/>
<path d="M13350 6490 l0 -360 -45 0 -45 0 0 -770 0 -770 -132 0 c-187 0 -260
-10 -726 -101 -228 -45 -415 -79 -417 -77 -5 5 42 478 47 484 3 2 53 -5 113
-16 60 -11 110 -18 112 -17 4 5 33 206 33 235 0 17 -6 22 -24 22 -14 0 -27 4
-31 9 -3 6 17 95 45 199 124 467 229 937 280 1259 17 103 33 203 36 221 l5 32
-401 0 -400 0 0 -154 c0 -225 -25 -633 -71 -1146 -28 -318 -21 -292 -75 -284
l-44 6 0 -54 c0 -30 -3 -96 -6 -146 l-7 -90 55 -7 c30 -4 61 -11 68 -15 10 -6
9 -51 -9 -236 -11 -126 -21 -236 -21 -245 0 -12 -11 -15 -50 -15 -47 1 -50 2
-50 28 0 24 -22 58 -38 58 -24 -1 -34 -20 -28 -53 l7 -36 -31 16 c-38 19 -60
11 -60 -21 0 -17 9 -30 26 -39 25 -13 24 -14 -48 -35 -40 -12 -129 -31 -198
-43 -84 -14 -129 -26 -137 -37 -22 -28 -16 -90 11 -117 27 -27 25 -26 176 -50
139 -23 420 -80 544 -111 105 -27 139 -26 151 3 4 10 10 58 15 106 5 49 10 90
12 92 2 1 360 11 797 20 697 16 895 17 1635 6 1094 -15 992 -16 1021 14 47 46
25 126 -37 140 -13 2 -223 37 -468 76 -245 39 -499 80 -565 91 -73 12 -193 22
-307 25 l-188 6 0 768 0 769 -45 0 -45 0 0 360 0 360 -220 0 -220 0 0 -360z
m-1780 -1979 c13 -25 13 -68 0 -76 -13 -8 -43 62 -36 81 8 20 24 17 36 -5z
m-59 -63 c41 -23 43 -38 3 -38 -36 0 -64 18 -64 40 0 26 13 25 61 -2z"/>
<path d="M13532 4183 c-48 -31 -82 -91 -82 -144 1 -46 31 -111 65 -137 144
-114 345 47 265 212 -28 58 -89 96 -155 96 -39 0 -61 -7 -93 -27z"/>
<path d="M12093 4149 c-76 -22 -132 -122 -113 -203 18 -81 74 -128 157 -133
72 -5 127 24 160 82 27 47 30 122 8 164 -20 39 -69 78 -113 91 -43 12 -56 11
-99 -1z"/>
<path d="M15037 4146 c-140 -52 -159 -241 -32 -313 101 -57 225 -4 255 108 36
131 -96 252 -223 205z"/>
</g>
</svg>
